<svg xmlns="http://www.w3.org/2000/svg" xmlns:xlink="http://www.w3.org/1999/xlink" width="500" zoomAndPan="magnify" viewBox="0 0 375 374.999991" height="500" preserveAspectRatio="xMidYMid meet" version="1.0"><defs><g/><clipPath id="c4f882fa99"><path d="M 0 120.621094 L 140.085938 120.621094 L 140.085938 260.707031 L 0 260.707031 Z M 0 120.621094 " clip-rule="nonzero"/></clipPath><clipPath id="f8a3a0ad27"><path d="M 18 120.621094 L 122.085938 120.621094 C 126.859375 120.621094 131.4375 122.519531 134.8125 125.894531 C 138.191406 129.269531 140.085938 133.847656 140.085938 138.621094 L 140.085938 242.707031 C 140.085938 247.480469 138.191406 252.058594 134.8125 255.4375 C 131.4375 258.8125 126.859375 260.707031 122.085938 260.707031 L 18 260.707031 C 13.226562 260.707031 8.648438 258.8125 5.273438 255.4375 C 1.894531 252.058594 0 247.480469 0 242.707031 L 0 138.621094 C 0 133.847656 1.894531 129.269531 5.273438 125.894531 C 8.648438 122.519531 13.226562 120.621094 18 120.621094 Z M 18 120.621094 " clip-rule="nonzero"/></clipPath><clipPath id="4895427740"><path d="M 26.0625 146.308594 L 66.5625 146.308594 L 66.5625 186.808594 L 26.0625 186.808594 Z M 26.0625 146.308594 " clip-rule="nonzero"/></clipPath><clipPath id="9c86019380"><path d="M 33.5625 146.308594 L 59.320312 146.308594 C 63.464844 146.308594 66.820312 149.667969 66.820312 153.808594 L 66.820312 179.566406 C 66.820312 183.710938 63.464844 187.066406 59.320312 187.066406 L 33.5625 187.066406 C 29.421875 187.066406 26.0625 183.710938 26.0625 179.566406 L 26.0625 153.808594 C 26.0625 149.667969 29.421875 146.308594 33.5625 146.308594 Z M 33.5625 146.308594 " clip-rule="nonzero"/></clipPath><clipPath id="aa43f3092e"><path d="M 74.917969 146.308594 L 115.417969 146.308594 L 115.417969 186.808594 L 74.917969 186.808594 Z M 74.917969 146.308594 " clip-rule="nonzero"/></clipPath><clipPath id="083dc4c940"><path d="M 95.296875 146.308594 C 84.039062 146.308594 74.917969 155.433594 74.917969 166.6875 C 74.917969 177.941406 84.039062 187.066406 95.296875 187.066406 C 106.550781 187.066406 115.675781 177.941406 115.675781 166.6875 C 115.675781 155.433594 106.550781 146.308594 95.296875 146.308594 Z M 95.296875 146.308594 " clip-rule="nonzero"/></clipPath><clipPath id="85aff000f4"><path d="M 23.621094 193 L 69 193 L 69 233.265625 L 23.621094 233.265625 Z M 23.621094 193 " clip-rule="nonzero"/></clipPath><clipPath id="d8107d6e77"><path d="M 48.671875 194.578125 L 68.546875 229.359375 C 69.007812 230.167969 69.007812 231.160156 68.539062 231.964844 C 68.070312 232.769531 67.210938 233.265625 66.28125 233.265625 L 26.601562 233.265625 C 25.667969 233.265625 24.808594 232.769531 24.339844 231.964844 C 23.875 231.160156 23.871094 230.167969 24.332031 229.359375 L 44.207031 194.578125 C 44.664062 193.777344 45.519531 193.28125 46.441406 193.28125 C 47.363281 193.28125 48.214844 193.777344 48.671875 194.578125 Z M 48.671875 194.578125 " clip-rule="nonzero"/></clipPath></defs><g fill="#c8f023" fill-opacity="1"><g transform="translate(159.662015, 179.09624)"><g><path d="M 28.125 -48.4375 L 47.671875 0 L 35.8125 0 L 32.234375 -9.6875 L 13.796875 -9.6875 L 10.21875 0 L -1.640625 0 L 17.90625 -48.4375 Z M 28.46875 -19.375 L 23.078125 -33.453125 L 22.953125 -33.453125 L 17.546875 -19.375 Z M 28.46875 -19.375 "/></g></g></g><g fill="#c8f023" fill-opacity="1"><g transform="translate(205.68784, 179.09624)"><g><path d="M 3.515625 -48.4375 L 20.84375 -48.4375 C 25.5 -48.4375 29.289062 -47.191406 32.21875 -44.703125 C 35.15625 -42.210938 36.625 -38.660156 36.625 -34.046875 C 36.625 -30.484375 35.734375 -27.5 33.953125 -25.09375 C 32.171875 -22.6875 29.753906 -20.992188 26.703125 -20.015625 L 43.375 0 L 29.359375 0 L 14.5625 -19.140625 L 14.5625 0 L 3.515625 0 Z M 14.5625 -26.9375 L 15.84375 -26.9375 C 16.863281 -26.9375 17.722656 -26.957031 18.421875 -27 C 19.128906 -27.039062 19.929688 -27.175781 20.828125 -27.40625 C 21.734375 -27.644531 22.457031 -27.976562 23 -28.40625 C 23.550781 -28.84375 24.019531 -29.472656 24.40625 -30.296875 C 24.800781 -31.117188 25 -32.113281 25 -33.28125 C 25 -34.457031 24.800781 -35.457031 24.40625 -36.28125 C 24.019531 -37.101562 23.550781 -37.726562 23 -38.15625 C 22.457031 -38.582031 21.734375 -38.910156 20.828125 -39.140625 C 19.929688 -39.378906 19.128906 -39.519531 18.421875 -39.5625 C 17.722656 -39.601562 16.863281 -39.625 15.84375 -39.625 L 14.5625 -39.625 Z M 14.5625 -26.9375 "/></g></g></g><g fill="#c8f023" fill-opacity="1"><g transform="translate(159.662015, 246.608665)"><g><path d="M 21.375 -49.3125 C 23.988281 -49.3125 26.546875 -48.925781 29.046875 -48.15625 C 31.554688 -47.394531 33.421875 -46.644531 34.640625 -45.90625 L 36.390625 -44.734375 L 31.9375 -35.921875 C 31.582031 -36.160156 31.09375 -36.460938 30.46875 -36.828125 C 29.84375 -37.203125 28.664062 -37.703125 26.9375 -38.328125 C 25.21875 -38.953125 23.613281 -39.265625 22.125 -39.265625 C 20.289062 -39.265625 18.875 -38.875 17.875 -38.09375 C 16.875 -37.3125 16.375 -36.253906 16.375 -34.921875 C 16.375 -34.265625 16.609375 -33.648438 17.078125 -33.078125 C 17.546875 -32.515625 18.347656 -31.910156 19.484375 -31.265625 C 20.617188 -30.617188 21.617188 -30.097656 22.484375 -29.703125 C 23.347656 -29.304688 24.675781 -28.71875 26.46875 -27.9375 C 29.601562 -26.613281 32.273438 -24.804688 34.484375 -22.515625 C 36.703125 -20.222656 37.8125 -17.628906 37.8125 -14.734375 C 37.8125 -11.953125 37.3125 -9.523438 36.3125 -7.453125 C 35.3125 -5.378906 33.941406 -3.753906 32.203125 -2.578125 C 30.460938 -1.410156 28.535156 -0.546875 26.421875 0.015625 C 24.304688 0.585938 22.015625 0.875 19.546875 0.875 C 17.429688 0.875 15.351562 0.660156 13.3125 0.234375 C 11.28125 -0.191406 9.578125 -0.726562 8.203125 -1.375 C 6.835938 -2.019531 5.609375 -2.65625 4.515625 -3.28125 C 3.421875 -3.914062 2.617188 -4.445312 2.109375 -4.875 L 1.34375 -5.515625 L 6.875 -14.796875 C 7.34375 -14.398438 7.984375 -13.898438 8.796875 -13.296875 C 9.617188 -12.691406 11.078125 -11.878906 13.171875 -10.859375 C 15.265625 -9.835938 17.113281 -9.328125 18.71875 -9.328125 C 23.382812 -9.328125 25.71875 -10.914062 25.71875 -14.09375 C 25.71875 -14.757812 25.550781 -15.375 25.21875 -15.9375 C 24.882812 -16.507812 24.296875 -17.078125 23.453125 -17.640625 C 22.609375 -18.203125 21.863281 -18.648438 21.21875 -18.984375 C 20.570312 -19.316406 19.515625 -19.828125 18.046875 -20.515625 C 16.578125 -21.203125 15.492188 -21.722656 14.796875 -22.078125 C 11.859375 -23.523438 9.585938 -25.332031 7.984375 -27.5 C 6.378906 -29.675781 5.578125 -32.015625 5.578125 -34.515625 C 5.578125 -38.859375 7.179688 -42.410156 10.390625 -45.171875 C 13.597656 -47.929688 17.257812 -49.3125 21.375 -49.3125 Z M 21.375 -49.3125 "/></g></g></g><g fill="#c8f023" fill-opacity="1"><g transform="translate(199.112716, 246.608665)"><g><path d="M 3.515625 0 L 3.515625 -50.484375 L 13.90625 -50.484375 L 13.90625 -26.9375 L 14.03125 -26.9375 C 16.726562 -29.644531 19.601562 -31 22.65625 -31 C 24.144531 -31 25.625 -30.800781 27.09375 -30.40625 C 28.5625 -30.019531 29.96875 -29.414062 31.3125 -28.59375 C 32.664062 -27.769531 33.765625 -26.601562 34.609375 -25.09375 C 35.453125 -23.582031 35.875 -21.832031 35.875 -19.84375 L 35.875 0 L 25.484375 0 L 25.484375 -17.03125 C 25.484375 -18.59375 24.984375 -19.957031 23.984375 -21.125 C 22.984375 -22.300781 21.679688 -22.890625 20.078125 -22.890625 C 18.515625 -22.890625 17.09375 -22.28125 15.8125 -21.0625 C 14.539062 -19.851562 13.90625 -18.507812 13.90625 -17.03125 L 13.90625 0 Z M 3.515625 0 "/></g></g></g><g fill="#c8f023" fill-opacity="1"><g transform="translate(237.917643, 246.608665)"><g><path d="M 5.5625 -3.71875 C 2.75 -6.789062 1.34375 -10.554688 1.34375 -15.015625 C 1.34375 -19.484375 2.75 -23.265625 5.5625 -26.359375 C 8.382812 -29.453125 11.96875 -31 16.3125 -31 C 20.3125 -31 23.601562 -29.742188 26.1875 -27.234375 L 26.1875 -30.109375 L 36.578125 -30.109375 L 36.578125 0 L 26.296875 0 L 26.296875 -3.40625 L 26.1875 -3.40625 C 23.601562 -0.550781 20.3125 0.875 16.3125 0.875 C 11.96875 0.875 8.382812 -0.65625 5.5625 -3.71875 Z M 14.40625 -20.125 C 13.0625 -18.800781 12.390625 -17.101562 12.390625 -15.03125 C 12.390625 -12.957031 13.035156 -11.265625 14.328125 -9.953125 C 15.617188 -8.640625 17.320312 -7.984375 19.4375 -7.984375 C 21.46875 -7.984375 23.140625 -8.644531 24.453125 -9.96875 C 25.765625 -11.300781 26.421875 -12.988281 26.421875 -15.03125 C 26.421875 -17.101562 25.742188 -18.800781 24.390625 -20.125 C 23.035156 -21.457031 21.382812 -22.125 19.4375 -22.125 C 17.4375 -22.125 15.757812 -21.457031 14.40625 -20.125 Z M 14.40625 -20.125 "/></g></g></g><g fill="#c8f023" fill-opacity="1"><g transform="translate(278.014118, 246.608665)"><g><path d="M 37.921875 -30.109375 L 23.59375 -15.734375 L 39.328125 0 L 25.953125 0 L 13.90625 -12.03125 L 13.90625 0 L 3.515625 0 L 3.515625 -50.484375 L 13.90625 -50.484375 L 13.90625 -19.609375 L 24.421875 -30.109375 Z M 37.921875 -30.109375 "/></g></g></g><g fill="#c8f023" fill-opacity="1"><g transform="translate(315.938453, 246.608665)"><g><path d="M 4.515625 -46.890625 C 5.734375 -48.109375 7.179688 -48.71875 8.859375 -48.71875 C 10.546875 -48.71875 11.992188 -48.109375 13.203125 -46.890625 C 14.421875 -45.679688 15.03125 -44.234375 15.03125 -42.546875 C 15.03125 -40.867188 14.421875 -39.421875 13.203125 -38.203125 C 11.992188 -36.992188 10.546875 -36.390625 8.859375 -36.390625 C 7.179688 -36.390625 5.734375 -36.992188 4.515625 -38.203125 C 3.304688 -39.421875 2.703125 -40.867188 2.703125 -42.546875 C 2.703125 -44.234375 3.304688 -45.679688 4.515625 -46.890625 Z M 3.515625 -30.109375 L 3.515625 0 L 13.90625 0 L 13.90625 -30.109375 Z M 3.515625 -30.109375 "/></g></g></g><g fill="#c8f023" fill-opacity="1"><g transform="translate(333.667784, 246.608665)"><g><path d="M 34.515625 -26.359375 C 37.335938 -23.265625 38.75 -19.484375 38.75 -15.015625 C 38.75 -10.554688 37.335938 -6.789062 34.515625 -3.71875 C 31.703125 -0.65625 28.125 0.875 23.78125 0.875 C 19.78125 0.875 16.488281 -0.550781 13.90625 -3.40625 L 13.796875 -3.40625 L 13.796875 0 L 3.515625 0 L 3.515625 -50.484375 L 13.90625 -50.484375 L 13.90625 -27.234375 C 16.488281 -29.742188 19.78125 -31 23.78125 -31 C 28.125 -31 31.703125 -29.453125 34.515625 -26.359375 Z M 25.765625 -9.953125 C 27.054688 -11.265625 27.703125 -12.957031 27.703125 -15.03125 C 27.703125 -17.101562 27.023438 -18.800781 25.671875 -20.125 C 24.328125 -21.457031 22.65625 -22.125 20.65625 -22.125 C 18.707031 -22.125 17.054688 -21.457031 15.703125 -20.125 C 14.347656 -18.800781 13.671875 -17.101562 13.671875 -15.03125 C 13.671875 -12.988281 14.328125 -11.300781 15.640625 -9.96875 C 16.953125 -8.644531 18.625 -7.984375 20.65625 -7.984375 C 22.769531 -7.984375 24.472656 -8.640625 25.765625 -9.953125 Z M 25.765625 -9.953125 "/></g></g></g><g clip-path="url(#c4f882fa99)"><g clip-path="url(#f8a3a0ad27)"><path stroke-linecap="butt" transform="matrix(0.75, 0, 0, 0.75, 0.0000045, 120.621899)" fill="none" stroke-linejoin="miter" d="M 23.999996 -0.00107404 L 162.781255 -0.00107404 C 169.145838 -0.00107404 175.250006 2.530176 179.750006 7.030176 C 184.255214 11.530177 186.781256 17.634344 186.781256 23.998928 L 186.781256 162.780187 C 186.781256 169.14477 184.255214 175.248937 179.750006 179.754146 C 175.250006 184.254146 169.145838 186.780188 162.781255 186.780188 L 23.999996 186.780188 C 17.635412 186.780188 11.531245 184.254146 7.031244 179.754146 C 2.526036 175.248937 -0.000006 169.14477 -0.000006 162.780187 L -0.000006 23.998928 C -0.000006 17.634344 2.526036 11.530177 7.031244 7.030176 C 11.531245 2.530176 17.635412 -0.00107404 23.999996 -0.00107404 Z M 23.999996 -0.00107404 " stroke="#c8f023" stroke-width="26" stroke-opacity="1" stroke-miterlimit="4"/></g></g><g clip-path="url(#4895427740)"><g clip-path="url(#9c86019380)"><path stroke-linecap="butt" transform="matrix(0.75, 0, 0, 0.75, 26.064185, 146.30898)" fill="none" stroke-linejoin="miter" d="M 9.997753 -0.00051499 L 44.341506 -0.00051499 C 49.867548 -0.00051499 54.341506 4.478652 54.341506 9.999486 L 54.341506 44.343238 C 54.341506 49.86928 49.867548 54.343239 44.341506 54.343239 L 9.997753 54.343239 C 4.47692 54.343239 -0.00224724 49.86928 -0.00224724 44.343238 L -0.00224724 9.999486 C -0.00224724 4.478652 4.47692 -0.00051499 9.997753 -0.00051499 Z M 9.997753 -0.00051499 " stroke="#c8f023" stroke-width="18" stroke-opacity="1" stroke-miterlimit="4"/></g></g><g clip-path="url(#aa43f3092e)"><g clip-path="url(#083dc4c940)"><path stroke-linecap="butt" transform="matrix(0.75, 0, 0, 0.75, 74.916592, 146.30898)" fill="none" stroke-linejoin="miter" d="M 27.173712 -0.00051499 C 12.163294 -0.00051499 0.00183516 12.166152 0.00183516 27.171362 C 0.00183516 42.176571 12.163294 54.343239 27.173712 54.343239 C 42.178921 54.343239 54.345589 42.176571 54.345589 27.171362 C 54.345589 12.166152 42.178921 -0.00051499 27.173712 -0.00051499 Z M 27.173712 -0.00051499 " stroke="#c8f023" stroke-width="18" stroke-opacity="1" stroke-miterlimit="4"/></g></g><g clip-path="url(#85aff000f4)"><g clip-path="url(#d8107d6e77)"><path stroke-linecap="butt" transform="matrix(0.75, 0, 0, 0.75, 22.100403, 190.669967)" fill="none" stroke-linejoin="miter" d="M 35.428632 5.210877 L 61.928634 51.58588 C 62.543217 52.664005 62.543217 53.986922 61.918217 55.059839 C 61.293217 56.132755 60.147384 56.794214 58.9078 56.794214 L 6.001547 56.794214 C 4.756755 56.794214 3.610921 56.132755 2.985921 55.059839 C 2.36613 53.986922 2.360921 52.664005 2.975505 51.58588 L 29.475507 5.210877 C 30.084882 4.143169 31.225507 3.48171 32.454673 3.48171 C 33.68384 3.48171 34.819257 4.143169 35.428632 5.210877 Z M 35.428632 5.210877 " stroke="#c8f023" stroke-width="18" stroke-opacity="1" stroke-miterlimit="4"/></g></g><path stroke-linecap="round" transform="matrix(0.691862, -0.691862, 0.691862, 0.691862, 73.983794, 229.080103)" fill="none" stroke-linejoin="miter" d="M 4.498884 4.501671 L 48.102898 4.501671 " stroke="#c8f023" stroke-width="9" stroke-opacity="1" stroke-miterlimit="4"/><path stroke-linecap="round" transform="matrix(-0.691862, -0.691862, 0.691862, -0.691862, 110.371418, 235.306859)" fill="none" stroke-linejoin="miter" d="M 4.498838 4.498369 L 48.102853 4.498369 " stroke="#c8f023" stroke-width="9" stroke-opacity="1" stroke-miterlimit="4"/></svg>