<svg xmlns="http://www.w3.org/2000/svg" xmlns:xlink="http://www.w3.org/1999/xlink" width="500" zoomAndPan="magnify" viewBox="0 0 375 374.999991" height="500" preserveAspectRatio="xMidYMid meet" version="1.0"><defs><g/><clipPath id="18a0a09db2"><path d="M 51.554688 134.546875 L 158.804688 134.546875 L 158.804688 241.796875 L 51.554688 241.796875 Z M 51.554688 134.546875 " clip-rule="nonzero"/></clipPath><clipPath id="bd6a55be6b"><path d="M 69.550781 134.546875 L 140.933594 134.546875 C 145.707031 134.546875 150.285156 136.445312 153.660156 139.820312 C 157.035156 143.195312 158.933594 147.773438 158.933594 152.546875 L 158.933594 223.929688 C 158.933594 228.703125 157.035156 233.28125 153.660156 236.65625 C 150.285156 240.03125 145.707031 241.925781 140.933594 241.925781 L 69.550781 241.925781 C 64.777344 241.925781 60.199219 240.03125 56.824219 236.65625 C 53.449219 233.28125 51.554688 228.703125 51.554688 223.929688 L 51.554688 152.546875 C 51.554688 147.773438 53.449219 143.195312 56.824219 139.820312 C 60.199219 136.445312 64.777344 134.546875 69.550781 134.546875 Z M 69.550781 134.546875 " clip-rule="nonzero"/></clipPath><clipPath id="ea49a1ba32"><path d="M 71.53125 154.238281 L 102.773438 154.238281 L 102.773438 185.480469 L 71.53125 185.480469 Z M 71.53125 154.238281 " clip-rule="nonzero"/></clipPath><clipPath id="10a0264638"><path d="M 79.03125 154.238281 L 95.273438 154.238281 C 97.261719 154.238281 99.171875 155.027344 100.578125 156.433594 C 101.984375 157.839844 102.773438 159.75 102.773438 161.738281 L 102.773438 177.980469 C 102.773438 179.96875 101.984375 181.878906 100.578125 183.285156 C 99.171875 184.691406 97.261719 185.480469 95.273438 185.480469 L 79.03125 185.480469 C 77.042969 185.480469 75.136719 184.691406 73.726562 183.285156 C 72.320312 181.878906 71.53125 179.96875 71.53125 177.980469 L 71.53125 161.738281 C 71.53125 159.75 72.320312 157.839844 73.726562 156.433594 C 75.136719 155.027344 77.042969 154.238281 79.03125 154.238281 Z M 79.03125 154.238281 " clip-rule="nonzero"/></clipPath><clipPath id="36f979fca8"><path d="M 108.976562 154.238281 L 140.21875 154.238281 L 140.21875 185.480469 L 108.976562 185.480469 Z M 108.976562 154.238281 " clip-rule="nonzero"/></clipPath><clipPath id="bdb888f540"><path d="M 124.597656 154.238281 C 115.972656 154.238281 108.976562 161.230469 108.976562 169.859375 C 108.976562 178.488281 115.972656 185.480469 124.597656 185.480469 C 133.226562 185.480469 140.21875 178.488281 140.21875 169.859375 C 140.21875 161.230469 133.226562 154.238281 124.597656 154.238281 Z M 124.597656 154.238281 " clip-rule="nonzero"/></clipPath><clipPath id="d8499e483f"><path d="M 70.242188 190.574219 L 104 190.574219 L 104 220.890625 L 70.242188 220.890625 Z M 70.242188 190.574219 " clip-rule="nonzero"/></clipPath><clipPath id="8eccd2006a"><path d="M 89.382812 192.148438 L 103.574219 216.984375 C 104.035156 217.789062 104.03125 218.785156 103.566406 219.589844 C 103.097656 220.394531 102.238281 220.890625 101.308594 220.890625 L 72.992188 220.890625 C 72.0625 220.890625 71.203125 220.394531 70.734375 219.589844 C 70.265625 218.785156 70.265625 217.789062 70.726562 216.984375 L 84.917969 192.148438 C 85.375 191.347656 86.226562 190.851562 87.148438 190.851562 C 88.074219 190.851562 88.925781 191.347656 89.382812 192.148438 Z M 89.382812 192.148438 " clip-rule="nonzero"/></clipPath></defs><rect x="-37.5" width="450" fill="#ffffff" y="-37.499999" height="449.999989" fill-opacity="1"/><rect x="-37.5" width="450" fill="#0c0c10" y="-37.499999" height="449.999989" fill-opacity="1"/><g fill="#c8f023" fill-opacity="1"><g transform="translate(173.937927, 179.370339)"><g><path d="M 21.5625 -37.125 L 36.546875 0 L 27.453125 0 L 24.703125 -7.421875 L 10.578125 -7.421875 L 7.828125 0 L -1.265625 0 L 13.71875 -37.125 Z M 21.828125 -14.84375 L 17.6875 -25.65625 L 17.59375 -25.65625 L 13.453125 -14.84375 Z M 21.828125 -14.84375 "/></g></g></g><g fill="#c8f023" fill-opacity="1"><g transform="translate(209.217897, 179.370339)"><g><path d="M 2.703125 -37.125 L 15.96875 -37.125 C 19.539062 -37.125 22.453125 -36.171875 24.703125 -34.265625 C 26.953125 -32.359375 28.078125 -29.632812 28.078125 -26.09375 C 28.078125 -23.363281 27.394531 -21.078125 26.03125 -19.234375 C 24.664062 -17.390625 22.8125 -16.09375 20.46875 -15.34375 L 33.25 0 L 22.5 0 L 11.15625 -14.671875 L 11.15625 0 L 2.703125 0 Z M 11.15625 -20.65625 L 12.15625 -20.65625 C 12.925781 -20.65625 13.582031 -20.671875 14.125 -20.703125 C 14.664062 -20.734375 15.28125 -20.835938 15.96875 -21.015625 C 16.664062 -21.191406 17.222656 -21.445312 17.640625 -21.78125 C 18.054688 -22.113281 18.414062 -22.59375 18.71875 -23.21875 C 19.019531 -23.851562 19.171875 -24.617188 19.171875 -25.515625 C 19.171875 -26.410156 19.019531 -27.171875 18.71875 -27.796875 C 18.414062 -28.429688 18.054688 -28.914062 17.640625 -29.25 C 17.222656 -29.582031 16.664062 -29.835938 15.96875 -30.015625 C 15.28125 -30.191406 14.664062 -30.296875 14.125 -30.328125 C 13.582031 -30.359375 12.925781 -30.375 12.15625 -30.375 L 11.15625 -30.375 Z M 11.15625 -20.65625 "/></g></g></g><g fill="#c8f023" fill-opacity="1"><g transform="translate(173.937927, 231.120335)"><g><path d="M 16.375 -37.796875 C 18.382812 -37.796875 20.347656 -37.503906 22.265625 -36.921875 C 24.191406 -36.335938 25.617188 -35.757812 26.546875 -35.1875 L 27.90625 -34.296875 L 24.484375 -27.546875 C 24.210938 -27.722656 23.835938 -27.953125 23.359375 -28.234375 C 22.878906 -28.523438 21.976562 -28.910156 20.65625 -29.390625 C 19.332031 -29.867188 18.101562 -30.109375 16.96875 -30.109375 C 15.550781 -30.109375 14.460938 -29.804688 13.703125 -29.203125 C 12.941406 -28.609375 12.5625 -27.800781 12.5625 -26.78125 C 12.5625 -26.269531 12.738281 -25.796875 13.09375 -25.359375 C 13.457031 -24.921875 14.070312 -24.453125 14.9375 -23.953125 C 15.8125 -23.460938 16.578125 -23.066406 17.234375 -22.765625 C 17.890625 -22.460938 18.910156 -22.015625 20.296875 -21.421875 C 22.691406 -20.398438 24.738281 -19.007812 26.4375 -17.25 C 28.132812 -15.5 28.984375 -13.515625 28.984375 -11.296875 C 28.984375 -9.160156 28.597656 -7.296875 27.828125 -5.703125 C 27.066406 -4.117188 26.019531 -2.875 24.6875 -1.96875 C 23.351562 -1.070312 21.875 -0.410156 20.25 0.015625 C 18.625 0.453125 16.867188 0.671875 14.984375 0.671875 C 13.367188 0.671875 11.78125 0.503906 10.21875 0.171875 C 8.65625 -0.148438 7.347656 -0.554688 6.296875 -1.046875 C 5.242188 -1.546875 4.296875 -2.035156 3.453125 -2.515625 C 2.617188 -2.992188 2.007812 -3.398438 1.625 -3.734375 L 1.03125 -4.234375 L 5.265625 -11.34375 C 5.628906 -11.039062 6.125 -10.65625 6.75 -10.1875 C 7.375 -9.726562 8.488281 -9.109375 10.09375 -8.328125 C 11.707031 -7.546875 13.128906 -7.15625 14.359375 -7.15625 C 17.921875 -7.15625 19.703125 -8.367188 19.703125 -10.796875 C 19.703125 -11.304688 19.570312 -11.78125 19.3125 -12.21875 C 19.0625 -12.65625 18.613281 -13.085938 17.96875 -13.515625 C 17.332031 -13.953125 16.765625 -14.296875 16.265625 -14.546875 C 15.773438 -14.804688 14.96875 -15.195312 13.84375 -15.71875 C 12.71875 -16.25 11.882812 -16.648438 11.34375 -16.921875 C 9.09375 -18.023438 7.351562 -19.410156 6.125 -21.078125 C 4.894531 -22.742188 4.28125 -24.535156 4.28125 -26.453125 C 4.28125 -29.785156 5.507812 -32.507812 7.96875 -34.625 C 10.425781 -36.738281 13.226562 -37.796875 16.375 -37.796875 Z M 16.375 -37.796875 "/></g></g></g><g fill="#c8f023" fill-opacity="1"><g transform="translate(204.177896, 231.120335)"><g><path d="M 2.703125 0 L 2.703125 -38.703125 L 10.671875 -38.703125 L 10.671875 -20.65625 L 10.75 -20.65625 C 12.820312 -22.726562 15.03125 -23.765625 17.375 -23.765625 C 18.507812 -23.765625 19.640625 -23.613281 20.765625 -23.3125 C 21.890625 -23.007812 22.96875 -22.539062 24 -21.90625 C 25.039062 -21.28125 25.882812 -20.390625 26.53125 -19.234375 C 27.175781 -18.078125 27.5 -16.734375 27.5 -15.203125 L 27.5 0 L 19.53125 0 L 19.53125 -13.046875 C 19.53125 -14.242188 19.144531 -15.289062 18.375 -16.1875 C 17.613281 -17.09375 16.617188 -17.546875 15.390625 -17.546875 C 14.191406 -17.546875 13.101562 -17.082031 12.125 -16.15625 C 11.15625 -15.226562 10.671875 -14.191406 10.671875 -13.046875 L 10.671875 0 Z M 2.703125 0 "/></g></g></g><g fill="#c8f023" fill-opacity="1"><g transform="translate(233.922863, 231.120335)"><g><path d="M 4.265625 -2.859375 C 2.109375 -5.210938 1.03125 -8.097656 1.03125 -11.515625 C 1.03125 -14.941406 2.109375 -17.835938 4.265625 -20.203125 C 6.429688 -22.578125 9.179688 -23.765625 12.515625 -23.765625 C 15.566406 -23.765625 18.082031 -22.800781 20.0625 -20.875 L 20.0625 -23.078125 L 28.03125 -23.078125 L 28.03125 0 L 20.15625 0 L 20.15625 -2.609375 L 20.0625 -2.609375 C 18.082031 -0.421875 15.566406 0.671875 12.515625 0.671875 C 9.179688 0.671875 6.429688 -0.503906 4.265625 -2.859375 Z M 11.046875 -15.4375 C 10.015625 -14.414062 9.5 -13.109375 9.5 -11.515625 C 9.5 -9.929688 9.992188 -8.632812 10.984375 -7.625 C 11.972656 -6.625 13.273438 -6.125 14.890625 -6.125 C 16.453125 -6.125 17.734375 -6.632812 18.734375 -7.65625 C 19.742188 -8.675781 20.25 -9.960938 20.25 -11.515625 C 20.25 -13.109375 19.726562 -14.414062 18.6875 -15.4375 C 17.65625 -16.457031 16.390625 -16.96875 14.890625 -16.96875 C 13.359375 -16.96875 12.078125 -16.457031 11.046875 -15.4375 Z M 11.046875 -15.4375 "/></g></g></g><g fill="#c8f023" fill-opacity="1"><g transform="translate(264.657834, 231.120335)"><g><path d="M 29.0625 -23.078125 L 18.09375 -12.0625 L 30.15625 0 L 19.890625 0 L 10.671875 -9.21875 L 10.671875 0 L 2.703125 0 L 2.703125 -38.703125 L 10.671875 -38.703125 L 10.671875 -15.03125 L 18.71875 -23.078125 Z M 29.0625 -23.078125 "/></g></g></g><g fill="#c8f023" fill-opacity="1"><g transform="translate(293.727806, 231.120335)"><g><path d="M 3.453125 -35.953125 C 4.390625 -36.878906 5.503906 -37.34375 6.796875 -37.34375 C 8.085938 -37.34375 9.195312 -36.878906 10.125 -35.953125 C 11.050781 -35.023438 11.515625 -33.914062 11.515625 -32.625 C 11.515625 -31.332031 11.050781 -30.222656 10.125 -29.296875 C 9.195312 -28.367188 8.085938 -27.90625 6.796875 -27.90625 C 5.503906 -27.90625 4.390625 -28.367188 3.453125 -29.296875 C 2.523438 -30.222656 2.0625 -31.332031 2.0625 -32.625 C 2.0625 -33.914062 2.523438 -35.023438 3.453125 -35.953125 Z M 2.703125 -23.078125 L 2.703125 0 L 10.671875 0 L 10.671875 -23.078125 Z M 2.703125 -23.078125 "/></g></g></g><g fill="#c8f023" fill-opacity="1"><g transform="translate(307.31779, 231.120335)"><g><path d="M 26.453125 -20.203125 C 28.617188 -17.835938 29.703125 -14.941406 29.703125 -11.515625 C 29.703125 -8.097656 28.617188 -5.210938 26.453125 -2.859375 C 24.296875 -0.503906 21.550781 0.671875 18.21875 0.671875 C 15.164062 0.671875 12.648438 -0.421875 10.671875 -2.609375 L 10.578125 -2.609375 L 10.578125 0 L 2.703125 0 L 2.703125 -38.703125 L 10.671875 -38.703125 L 10.671875 -20.875 C 12.648438 -22.800781 15.164062 -23.765625 18.21875 -23.765625 C 21.550781 -23.765625 24.296875 -22.578125 26.453125 -20.203125 Z M 19.75 -7.625 C 20.738281 -8.632812 21.234375 -9.929688 21.234375 -11.515625 C 21.234375 -13.109375 20.71875 -14.414062 19.6875 -15.4375 C 18.65625 -16.457031 17.375 -16.96875 15.84375 -16.96875 C 14.34375 -16.96875 13.070312 -16.457031 12.03125 -15.4375 C 11 -14.414062 10.484375 -13.109375 10.484375 -11.515625 C 10.484375 -9.960938 10.984375 -8.675781 11.984375 -7.65625 C 12.992188 -6.632812 14.28125 -6.125 15.84375 -6.125 C 17.457031 -6.125 18.757812 -6.625 19.75 -7.625 Z M 19.75 -7.625 "/></g></g></g><g clip-path="url(#18a0a09db2)"><g clip-path="url(#bd6a55be6b)"><path stroke-linecap="butt" transform="matrix(0.75, 0, 0, 0.75, 51.552928, 134.548263)" fill="none" stroke-linejoin="miter" d="M 23.99714 -0.00185089 L 119.174229 -0.00185089 C 125.538813 -0.00185089 131.64298 2.529399 136.142981 7.0294 C 140.642981 11.5294 143.174231 17.633567 143.174231 23.998151 L 143.174231 119.17524 C 143.174231 125.539824 140.642981 131.643991 136.142981 136.143991 C 131.64298 140.643992 125.538813 143.170034 119.174229 143.170034 L 23.99714 143.170034 C 17.632556 143.170034 11.528389 140.643992 7.028389 136.143991 C 2.528388 131.643991 0.00234665 125.539824 0.00234665 119.17524 L 0.00234665 23.998151 C 0.00234665 17.633567 2.528388 11.5294 7.028389 7.0294 C 11.528389 2.529399 17.632556 -0.00185089 23.99714 -0.00185089 Z M 23.99714 -0.00185089 " stroke="#c8f023" stroke-width="26" stroke-opacity="1" stroke-miterlimit="4"/></g></g><g clip-path="url(#ea49a1ba32)"><g clip-path="url(#10a0264638)"><path stroke-linecap="butt" transform="matrix(0.75, 0, 0, 0.75, 71.531784, 154.238075)" fill="none" stroke-linejoin="miter" d="M 9.999289 0.000274371 L 31.65554 0.000274371 C 34.306582 0.000274371 36.853457 1.052358 38.728457 2.927358 C 40.603458 4.802358 41.655541 7.349233 41.655541 10.000275 L 41.655541 31.656526 C 41.655541 34.307568 40.603458 36.854443 38.728457 38.729444 C 36.853457 40.604444 34.306582 41.656527 31.65554 41.656527 L 9.999289 41.656527 C 7.348247 41.656527 4.80658 40.604444 2.926372 38.729444 C 1.051372 36.854443 -0.000711737 34.307568 -0.000711737 31.656526 L -0.000711737 10.000275 C -0.000711737 7.349233 1.051372 4.802358 2.926372 2.927358 C 4.80658 1.052358 7.348247 0.000274371 9.999289 0.000274371 Z M 9.999289 0.000274371 " stroke="#c8f023" stroke-width="18" stroke-opacity="1" stroke-miterlimit="4"/></g></g><g clip-path="url(#36f979fca8)"><g clip-path="url(#bdb888f540)"><path stroke-linecap="butt" transform="matrix(0.75, 0, 0, 0.75, 108.978396, 154.238075)" fill="none" stroke-linejoin="miter" d="M 20.825682 0.000274371 C 9.325681 0.000274371 -0.00244433 9.323192 -0.00244433 20.828401 C -0.00244433 32.33361 9.325681 41.656527 20.825682 41.656527 C 32.330891 41.656527 41.653808 32.33361 41.653808 20.828401 C 41.653808 9.323192 32.330891 0.000274371 20.825682 0.000274371 Z M 20.825682 0.000274371 " stroke="#c8f023" stroke-width="18" stroke-opacity="1" stroke-miterlimit="4"/></g></g><g clip-path="url(#d8499e483f)"><g clip-path="url(#8eccd2006a)"><path stroke-linecap="butt" transform="matrix(0.75, 0, 0, 0.75, 68.493449, 188.240774)" fill="none" stroke-linejoin="miter" d="M 27.852487 5.210218 L 46.774363 38.324804 C 47.388946 39.397721 47.383738 40.725846 46.763946 41.798762 C 46.138946 42.871679 44.993113 43.533137 43.753529 43.533137 L 5.998319 43.533137 C 4.758735 43.533137 3.612902 42.871679 2.987902 41.798762 C 2.362902 40.725846 2.362902 39.397721 2.977485 38.324804 L 21.899361 5.210218 C 22.508736 4.14251 23.644153 3.481052 24.87332 3.481052 C 26.107695 3.481052 27.243112 4.14251 27.852487 5.210218 Z M 27.852487 5.210218 " stroke="#c8f023" stroke-width="18" stroke-opacity="1" stroke-miterlimit="4"/></g></g><path stroke-linecap="round" transform="matrix(0.53033, -0.53033, 0.53033, 0.53033, 108.26339, 217.684234)" fill="none" stroke-linejoin="miter" d="M 4.499468 4.498261 L 48.104389 4.498261 " stroke="#c8f023" stroke-width="9" stroke-opacity="1" stroke-miterlimit="4"/><path stroke-linecap="round" transform="matrix(-0.53033, -0.53033, 0.53033, -0.53033, 136.155435, 222.457221)" fill="none" stroke-linejoin="miter" d="M 4.499851 4.501388 L 48.104772 4.501388 " stroke="#c8f023" stroke-width="9" stroke-opacity="1" stroke-miterlimit="4"/></svg>